<?xml version="1.0" encoding="UTF-8"?>
<!DOCTYPE svg PUBLIC "-//W3C//DTD SVG 1.1//EN" "http://www.w3.org/Graphics/SVG/1.1/DTD/svg11.dtd">
<svg xmlns="http://www.w3.org/2000/svg" version="1.1" width="250px" height="144px" style="shape-rendering:geometricPrecision; text-rendering:geometricPrecision; image-rendering:optimizeQuality; fill-rule:evenodd; clip-rule:evenodd" xmlns:xlink="http://www.w3.org/1999/xlink">
<g><path style="opacity:0.965" fill="#ffea00" d="M 203.5,76.5 C 203.5,61.8333 203.5,47.1667 203.5,32.5C 187.833,32.5 172.167,32.5 156.5,32.5C 165.38,16.0644 179.047,9.89774 197.5,14C 215.123,20.7296 222.956,33.563 221,52.5C 218.75,63.2313 212.917,71.2313 203.5,76.5 Z"/></g>
<g><path style="opacity:0.456" fill="#000000" d="M 156.5,32.5 C 156.5,32.8333 156.5,33.1667 156.5,33.5C 155.833,33.5 155.5,33.8333 155.5,34.5C 114.5,34.5 73.5,34.5 32.5,34.5C 32.5,52.5 32.5,70.5 32.5,88.5C 88.8333,88.5 145.167,88.5 201.5,88.5C 201.5,84.8333 201.5,81.1667 201.5,77.5C 202.167,77.5 202.5,77.1667 202.5,76.5C 202.833,76.5 203.167,76.5 203.5,76.5C 203.5,81.1667 203.5,85.8333 203.5,90.5C 145.833,90.5 88.1667,90.5 30.5,90.5C 30.5,71.1667 30.5,51.8333 30.5,32.5C 72.5,32.5 114.5,32.5 156.5,32.5 Z"/></g>
<g><path style="opacity:1" fill="#4d4702" d="M 156.5,33.5 C 156.5,33.1667 156.5,32.8333 156.5,32.5C 172.167,32.5 187.833,32.5 203.5,32.5C 203.5,47.1667 203.5,61.8333 203.5,76.5C 203.167,76.5 202.833,76.5 202.5,76.5C 202.5,62.1667 202.5,47.8333 202.5,33.5C 187.167,33.5 171.833,33.5 156.5,33.5 Z"/></g>
<g><path style="opacity:0.979" fill="#fae600" d="M 156.5,33.5 C 171.833,33.5 187.167,33.5 202.5,33.5C 202.5,47.8333 202.5,62.1667 202.5,76.5C 202.5,77.1667 202.167,77.5 201.5,77.5C 187.285,83.1085 174.619,80.7752 163.5,70.5C 165.582,70.3757 167.082,69.3757 168,67.5C 168.499,62.1771 168.666,56.8437 168.5,51.5C 166.176,51.9949 164.009,51.9949 162,51.5C 160.739,51.7591 159.739,52.4258 159,53.5C 158.502,56.8168 158.335,60.1501 158.5,63.5C 153.222,54.3891 152.222,44.7224 155.5,34.5C 155.5,33.8333 155.833,33.5 156.5,33.5 Z"/></g>
<g><path style="opacity:0.799" fill="#00000a" d="M 49.5,49.5 C 52.1667,49.5 54.8333,49.5 57.5,49.5C 57.5,51.1667 57.5,52.8333 57.5,54.5C 56.325,54.281 55.325,54.6143 54.5,55.5C 55.4435,60.1001 55.7768,64.7668 55.5,69.5C 53.8333,69.5 52.1667,69.5 50.5,69.5C 50.5,64.5 50.5,59.5 50.5,54.5C 49.5,54.5 48.5,54.5 47.5,54.5C 47.3653,52.4458 48.032,50.7791 49.5,49.5 Z"/></g>
<g><path style="opacity:0.789" fill="#000009" d="M 91.5,49.5 C 93.1667,49.5 94.8333,49.5 96.5,49.5C 96.5,50.5 96.5,51.5 96.5,52.5C 98.1667,52.5 99.8333,52.5 101.5,52.5C 101.221,55.1178 100.554,57.6178 99.5,60C 101.223,62.9435 102.223,66.1102 102.5,69.5C 100.833,69.5 99.1667,69.5 97.5,69.5C 97.1667,65.5 96.8333,65.5 96.5,69.5C 94.8333,69.5 93.1667,69.5 91.5,69.5C 91.5,62.8333 91.5,56.1667 91.5,49.5 Z"/></g>
<g><path style="opacity:0.813" fill="#000009" d="M 106.5,49.5 C 108.833,49.5 111.167,49.5 113.5,49.5C 114.782,57.3726 115.449,57.3726 115.5,49.5C 117.833,49.5 120.167,49.5 122.5,49.5C 122.5,55.8333 122.5,62.1667 122.5,68.5C 121.167,68.5 119.833,68.5 118.5,68.5C 118.167,60.5 117.833,60.5 117.5,68.5C 115.833,68.5 114.167,68.5 112.5,68.5C 111.955,64.8284 111.622,65.1617 111.5,69.5C 109.856,69.7135 108.356,69.3802 107,68.5C 106.5,62.1754 106.334,55.8421 106.5,49.5 Z"/></g>
<g><path style="opacity:0.824" fill="#000009" d="M 129.5,51.5 C 132.365,51.0548 134.865,51.7215 137,53.5C 137.499,58.4889 137.666,63.4889 137.5,68.5C 134.428,68.8174 131.428,68.4841 128.5,67.5C 126.499,63.2732 127.499,60.1065 131.5,58C 130.207,57.51 128.873,57.3433 127.5,57.5C 127.253,55.1417 127.919,53.1417 129.5,51.5 Z"/></g>
<g><path style="opacity:0.761" fill="#000009" d="M 142.5,51.5 C 145.518,51.3354 148.518,51.502 151.5,52C 152,52.5 152.5,53 153,53.5C 153.499,58.4889 153.666,63.4889 153.5,68.5C 151.833,68.5 150.167,68.5 148.5,68.5C 148.167,51.1667 147.833,51.1667 147.5,68.5C 145.833,68.5 144.167,68.5 142.5,68.5C 142.5,62.8333 142.5,57.1667 142.5,51.5 Z"/></g>
<g><path style="opacity:1" fill="#09080a" d="M 183.5,59.5 C 181.5,59.5 179.5,59.5 177.5,59.5C 177.216,61.4147 177.549,63.0813 178.5,64.5C 179.404,63.791 179.737,62.791 179.5,61.5C 180.833,61.5 182.167,61.5 183.5,61.5C 182.974,67.6426 180.14,68.9759 175,65.5C 174.333,61.5 174.333,57.5 175,53.5C 181.363,50.0026 184.196,52.0026 183.5,59.5 Z"/></g>
<g><path style="opacity:1" fill="#100e0a" d="M 189.5,51.5 C 191.674,51.9202 193.674,51.9202 195.5,51.5C 196.386,52.325 196.719,53.325 196.5,54.5C 195.5,54.5 194.5,54.5 193.5,54.5C 193.5,58.8333 193.5,63.1667 193.5,67.5C 192.167,67.5 190.833,67.5 189.5,67.5C 189.5,62.1667 189.5,56.8333 189.5,51.5 Z"/></g>
<g><path style="opacity:0.798" fill="#00000a" d="M 63.5,52.5 C 66.3646,52.0548 68.8646,52.7215 71,54.5C 71.4993,59.4889 71.6659,64.4889 71.5,69.5C 68.2234,69.7839 65.0567,69.4505 62,68.5C 61.3333,65.8333 61.3333,63.1667 62,60.5C 65.4101,59.1259 65.2434,58.4592 61.5,58.5C 61.2525,56.1417 61.9192,54.1417 63.5,52.5 Z"/></g>
<g><path style="opacity:0.796" fill="#00000a" d="M 77.5,52.5 C 80.6852,52.0196 83.5185,52.6863 86,54.5C 86.8651,56.8878 86.0317,58.3878 83.5,59C 87.0095,62.048 87.3428,65.3813 84.5,69C 78.6687,70.6659 76.002,68.4992 76.5,62.5C 80.1331,62.557 80.2998,61.557 77,59.5C 76.2967,57.0709 76.4634,54.7375 77.5,52.5 Z"/></g>
<g><path style="opacity:0.974" fill="#12100b" d="M 163.5,70.5 C 159.56,71.234 158.227,69.9007 159.5,66.5C 161.166,67.6664 162.833,67.6664 164.5,66.5C 162.955,65.5481 161.288,65.2148 159.5,65.5C 158.662,65.1583 158.328,64.4916 158.5,63.5C 158.335,60.1501 158.502,56.8168 159,53.5C 159.739,52.4258 160.739,51.7591 162,51.5C 164.009,51.9949 166.176,51.9949 168.5,51.5C 168.666,56.8437 168.499,62.1771 168,67.5C 167.082,69.3757 165.582,70.3757 163.5,70.5 Z"/></g>
<g><path style="opacity:1" fill="#7c7309" d="M 177.5,54.5 C 178.5,54.5 179.5,54.5 180.5,54.5C 180.5,55.8333 180.5,57.1667 180.5,58.5C 179.5,58.5 178.5,58.5 177.5,58.5C 177.5,57.1667 177.5,55.8333 177.5,54.5 Z"/></g>
<g><path style="opacity:1" fill="#caba02" d="M 162.5,54.5 C 163.765,55.5145 164.431,57.0145 164.5,59C 164.167,60.5 163.833,62 163.5,63.5C 162.516,60.5719 162.183,57.5719 162.5,54.5 Z"/></g>
<g><path style="opacity:1" fill="#555008" d="M 183.5,59.5 C 182.081,60.4511 180.415,60.7845 178.5,60.5C 178.5,61.8333 178.5,63.1667 178.5,64.5C 177.549,63.0813 177.216,61.4147 177.5,59.5C 179.5,59.5 181.5,59.5 183.5,59.5 Z"/></g>
<g><path style="opacity:1" fill="#a99c05" d="M 159.5,66.5 C 159.5,66.1667 159.5,65.8333 159.5,65.5C 161.288,65.2148 162.955,65.5481 164.5,66.5C 162.833,67.6664 161.166,67.6664 159.5,66.5 Z"/></g>
<g><path style="opacity:0.925" fill="#00a2e3" d="M 75.5,97.5 C 75.5,100.5 75.5,103.5 75.5,106.5C 60.8333,106.5 46.1667,106.5 31.5,106.5C 31.5,103.5 31.5,100.5 31.5,97.5C 46.1667,97.5 60.8333,97.5 75.5,97.5 Z"/></g>
<g><path style="opacity:0.923" fill="#fe0184" d="M 75.5,97.5 C 91.5,97.5 107.5,97.5 123.5,97.5C 123.5,100.5 123.5,103.5 123.5,106.5C 107.5,106.5 91.5,106.5 75.5,106.5C 75.5,103.5 75.5,100.5 75.5,97.5 Z"/></g>
<g><path style="opacity:0.909" fill="#ffec00" d="M 123.5,97.5 C 136.833,97.5 150.167,97.5 163.5,97.5C 163.5,100.5 163.5,103.5 163.5,106.5C 150.167,106.5 136.833,106.5 123.5,106.5C 123.5,103.5 123.5,100.5 123.5,97.5 Z"/></g>
<g><path style="opacity:0.909" fill="#000000" d="M 163.5,97.5 C 176.5,97.5 189.5,97.5 202.5,97.5C 202.5,100.5 202.5,103.5 202.5,106.5C 189.5,106.5 176.5,106.5 163.5,106.5C 163.5,103.5 163.5,100.5 163.5,97.5 Z"/></g>
<g><path style="opacity:0.643" fill="#000000" d="M 98.5,114.5 C 99.6433,117.976 99.8099,121.642 99,125.5C 98.5014,121.848 98.3347,118.182 98.5,114.5 Z"/></g>
<g><path style="opacity:0.348" fill="#000000" d="M 161.5,114.5 C 163.164,115.949 163.998,117.949 164,120.5C 167.653,116.477 168.153,116.811 165.5,121.5C 166.313,122.814 167.313,123.981 168.5,125C 166.112,125.865 164.612,125.032 164,122.5C 163.751,123.624 163.251,124.624 162.5,125.5C 161.511,121.893 161.177,118.226 161.5,114.5 Z"/></g>
<g><path style="opacity:0.406" fill="#000000" d="M 62.5,115.5 C 70.3113,114.889 72.6447,118.056 69.5,125C 67.1902,125.497 64.8568,125.663 62.5,125.5C 62.5,122.167 62.5,118.833 62.5,115.5 Z M 64.5,116.5 C 69.6677,117.339 70.6677,119.839 67.5,124C 66.552,124.483 65.552,124.649 64.5,124.5C 64.5,121.833 64.5,119.167 64.5,116.5 Z"/></g>
<g><path style="opacity:0.305" fill="#000000" d="M 89.5,115.5 C 90.7773,116.694 91.4439,118.36 91.5,120.5C 91.1667,122.167 90.8333,123.833 90.5,125.5C 89.8377,122.051 89.5043,118.718 89.5,115.5 Z"/></g>
<g><path style="opacity:0.446" fill="#000000" d="M 125.5,116.5 C 129.967,115.138 131.633,115.138 130.5,116.5C 129.833,128.5 129.167,128.5 128.5,116.5C 127.5,116.5 126.5,116.5 125.5,116.5 Z"/></g>
<g><path style="opacity:0.384" fill="#000000" d="M 79.5,117.5 C 82.2721,117.627 83.6054,119.127 83.5,122C 82.3863,126.927 80.0529,127.593 76.5,124C 77.5794,121.957 79.246,120.624 81.5,120C 80.1667,119.667 78.8333,119.333 77.5,119C 78.4158,118.722 79.0825,118.222 79.5,117.5 Z M 78.5,122.5 C 79.675,122.281 80.675,122.614 81.5,123.5C 79.9483,124.798 78.9483,124.465 78.5,122.5 Z"/></g>
<g><path style="opacity:0.345" fill="#000000" d="M 105.5,117.5 C 106.931,118.903 108.098,120.569 109,122.5C 109.402,121.128 109.902,119.795 110.5,118.5C 111.167,117.167 111.833,117.167 112.5,118.5C 111.246,122.683 109.246,126.349 106.5,129.5C 106.167,129.167 105.833,128.833 105.5,128.5C 106.415,127.672 107.081,126.672 107.5,125.5C 106.622,122.87 105.955,120.203 105.5,117.5 Z"/></g>
<g><path style="opacity:0.403" fill="#000000" d="M 139.5,117.5 C 142.272,117.627 143.605,119.127 143.5,122C 143.537,124.523 142.371,126.023 140,126.5C 138.268,126.266 137.434,125.266 137.5,123.5C 138.189,121.647 139.522,120.481 141.5,120C 139.065,119.925 138.398,119.092 139.5,117.5 Z M 139.5,122.5 C 140.376,122.369 141.043,122.702 141.5,123.5C 139.192,124.873 138.525,124.54 139.5,122.5 Z"/></g>
<g><path style="opacity:0.37" fill="#000000" d="M 150.5,117.5 C 156.261,117.709 156.594,118.542 151.5,120C 154.89,121.006 155.89,123.006 154.5,126C 148.012,125.421 148.012,124.754 154.5,124C 152.91,122.954 151.41,121.787 150,120.5C 149.53,119.423 149.697,118.423 150.5,117.5 Z"/></g>
</svg>
